<?xml version="1.0" encoding="UTF-8" standalone="no"?><!DOCTYPE svg PUBLIC "-//W3C//DTD SVG 1.1//EN" "http://www.w3.org/Graphics/SVG/1.1/DTD/svg11.dtd"><svg width="100%" height="100%" viewBox="0 0 42 42" version="1.1" xmlns="http://www.w3.org/2000/svg" xmlns:xlink="http://www.w3.org/1999/xlink" xml:space="preserve" style="fill-rule:evenodd;clip-rule:evenodd;stroke-linejoin:round;stroke-miterlimit:1.41421;"><path d="M8.333,19.526l12.337,8.707c0.198,0.14 0.462,0.14 0.66,0l12.337,-8.707c0,0 0,11.535 0,14.244c0,0.312 -0.252,0.564 -0.564,0.564c-3.369,0 -20.792,0 -24.194,0c-0.318,0 -0.576,-0.258 -0.576,-0.576c0,-2.73 0,-14.232 0,-14.232Z" style="fill:#009688;"/><path d="M20.671,26.582c0.198,0.138 0.46,0.138 0.658,0c1.669,-1.17 9.243,-6.478 12.079,-8.466c0.148,-0.104 0.212,-0.292 0.158,-0.464c-0.055,-0.173 -0.215,-0.29 -0.396,-0.29c-4.574,0 -19.763,0 -24.339,0c-0.181,0 -0.341,0.117 -0.396,0.29c-0.054,0.173 0.01,0.361 0.158,0.465c2.837,1.988 10.409,7.295 12.078,8.465Z" style="fill:#009688;"/></svg>