<?xml version="1.0" encoding="UTF-8" standalone="no"?><!DOCTYPE svg PUBLIC "-//W3C//DTD SVG 1.1//EN" "http://www.w3.org/Graphics/SVG/1.1/DTD/svg11.dtd"><svg width="100%" height="100%" viewBox="0 0 21 21" version="1.1" xmlns="http://www.w3.org/2000/svg" xmlns:xlink="http://www.w3.org/1999/xlink" xml:space="preserve" style="fill-rule:evenodd;clip-rule:evenodd;stroke-linejoin:round;stroke-miterlimit:1.41421;"><path d="M4.125,4.5l12.75,0l0,12l-12.75,0l0,-12Zm12.188,9.394l-11.626,0l0,0.644l11.625,0l0,-0.644Zm0,-0.965l-11.625,0l0,0.644l11.625,0l0,-0.644Zm-5.47,-4.827l-6.155,0l0,4.183l6.155,0l0,-4.183Zm5.129,3.057l-4.445,0l0,0.644l4.445,0l0,-0.644Zm0,-0.965l-4.445,0l0,0.643l4.445,0l0,-0.643Zm0,-1.127l-4.445,0l0,0.644l4.445,0l0,-0.644Zm0,-0.965l-4.445,0l0,0.644l4.445,0l0,-0.644Zm0.341,-2.896l-11.625,0l0,1.931l11.625,0l0,-1.931Z" style="fill:#FFC107;"/></svg>