<?xml version="1.0" encoding="UTF-8" standalone="no"?><!DOCTYPE svg PUBLIC "-//W3C//DTD SVG 1.1//EN" "http://www.w3.org/Graphics/SVG/1.1/DTD/svg11.dtd"><svg width="100%" height="100%" viewBox="0 0 42 42" version="1.1" xmlns="http://www.w3.org/2000/svg" xmlns:xlink="http://www.w3.org/1999/xlink" xml:space="preserve" style="fill-rule:evenodd;clip-rule:evenodd;stroke-linejoin:round;stroke-miterlimit:1.41421;"><path d="M23.562,18.146c-0.337,-0.299 -0.369,-0.812 -0.074,-1.151c0.972,-1.112 3.015,-3.451 3.965,-4.54c0.288,-0.329 0.778,-0.384 1.132,-0.128c0.802,0.58 2.163,1.565 2.775,2.008c0.2,0.144 0.317,0.375 0.314,0.621c-0.052,4.282 -0.96,8.11 -3.214,11.229c-3.926,4.374 -8.288,6.889 -12.966,8.054c-0.248,0.06 -0.509,-0.007 -0.697,-0.18c-0.586,-0.541 -1.898,-1.753 -2.649,-2.447c-0.314,-0.29 -0.352,-0.773 -0.088,-1.109c0.851,-1.082 2.642,-3.36 3.485,-4.431c0.258,-0.328 0.724,-0.402 1.071,-0.17c0.796,0.531 2.154,1.439 2.769,1.849c0.2,0.135 0.458,0.151 0.673,0.043c3.069,-1.547 5.099,-3.844 5.891,-7.036c0.061,-0.248 -0.021,-0.509 -0.212,-0.679c-0.502,-0.449 -1.52,-1.352 -2.175,-1.933Z" style="fill:#009688;"/></svg>