<?xml version="1.0" encoding="UTF-8" standalone="no"?><!DOCTYPE svg PUBLIC "-//W3C//DTD SVG 1.1//EN" "http://www.w3.org/Graphics/SVG/1.1/DTD/svg11.dtd"><svg width="100%" height="100%" viewBox="0 0 21 21" version="1.1" xmlns="http://www.w3.org/2000/svg" xmlns:xlink="http://www.w3.org/1999/xlink" xml:space="preserve" style="fill-rule:evenodd;clip-rule:evenodd;stroke-linejoin:round;stroke-miterlimit:1.41421;"><path d="M15.656,7.039l-10.312,0l2.578,9.836l5.156,0l2.578,-9.836Z" style="fill:#FFB300;"/><path d="M5.344,6.675l10.312,0c0,0 -0.013,-0.794 -0.764,-0.728c-0.081,-0.248 -0.186,-0.706 -0.764,-0.729c-0.176,0.009 -0.32,0.087 -0.381,0.364c-0.124,0.053 -0.553,-0.044 -0.764,0.365c0.03,-0.268 -0.251,-1.009 -1.146,-0.365c-0.11,-0.085 -0.472,-0.751 -1.528,-0.728c-0.091,-0.086 -0.428,-0.745 -1.146,-0.729c-0.118,-0.011 -0.927,0.419 -0.764,1.093c-0.165,-0.064 -0.916,-0.01 -1.146,0.364c-0.198,0.037 -1.508,-0.591 -1.909,1.093Z" style="fill:#FFB300;"/></svg>
